<svg xmlns="http://www.w3.org/2000/svg" xmlns:xlink="http://www.w3.org/1999/xlink" version="1.1" class="marks" width="731" height="438" viewBox="0 0 731 438"><rect width="731" height="438" fill="white"/><g fill="none" stroke-miterlimit="10" transform="translate(48,101)"><g class="mark-group role-frame root" role="graphics-object" aria-roledescription="group mark container"><g transform="translate(0,0)"><path class="background" aria-hidden="true" d="M0,0h0v0h0Z"/><g><g class="mark-group role-column-title column-title" role="graphics-object" aria-roledescription="group mark container"><g transform="translate(310,-40)"><path class="background" aria-hidden="true" d="M0,0h0v0h0Z"/><g><g class="mark-group role-title"><g transform="translate(0,-25)"><path class="background" aria-hidden="true" d="M0,0h0v0h0Z" pointer-events="none"/><g><g class="mark-text role-title-text" role="graphics-symbol" aria-roledescription="title" aria-label="Title text 'Year'" pointer-events="none"><text text-anchor="middle" transform="translate(0,12)" font-family="sans-serif" font-size="15px" font-weight="bold" fill="#000" opacity="1">Year</text></g></g><path class="foreground" aria-hidden="true" d="" pointer-events="none" display="none"/></g></g></g><path class="foreground" aria-hidden="true" d="" display="none"/></g></g><g class="mark-group role-row-header row_header" role="graphics-object" aria-roledescription="group mark container"><g transform="translate(0,0)"><path class="background" aria-hidden="true" d="M0,0h0v300h0Z"/><g><g class="mark-group role-axis" role="graphics-symbol" aria-roledescription="axis" aria-label="Y-axis titled 'Alimentary poverty' for a linear scale with values from 0% to 50%"><g transform="translate(0.5,0.5)"><path class="background" aria-hidden="true" d="M0,0h0v0h0Z" pointer-events="none"/><g><g class="mark-rule role-axis-tick" pointer-events="none"><line transform="translate(0,300)" x2="-5" y2="0" stroke="#888" stroke-width="1" opacity="1"/><line transform="translate(0,270)" x2="-5" y2="0" stroke="#888" stroke-width="1" opacity="1"/><line transform="translate(0,240)" x2="-5" y2="0" stroke="#888" stroke-width="1" opacity="1"/><line transform="translate(0,210)" x2="-5" y2="0" stroke="#888" stroke-width="1" opacity="1"/><line transform="translate(0,180)" x2="-5" y2="0" stroke="#888" stroke-width="1" opacity="1"/><line transform="translate(0,150)" x2="-5" y2="0" stroke="#888" stroke-width="1" opacity="1"/><line transform="translate(0,120)" x2="-5" y2="0" stroke="#888" stroke-width="1" opacity="1"/><line transform="translate(0,90)" x2="-5" y2="0" stroke="#888" stroke-width="1" opacity="1"/><line transform="translate(0,60)" x2="-5" y2="0" stroke="#888" stroke-width="1" opacity="1"/><line transform="translate(0,30)" x2="-5" y2="0" stroke="#888" stroke-width="1" opacity="1"/><line transform="translate(0,0)" x2="-5" y2="0" stroke="#888" stroke-width="1" opacity="1"/></g><g class="mark-text role-axis-label" pointer-events="none"><text text-anchor="end" transform="translate(-7,303)" font-family="sans-serif" font-size="10px" fill="#000" opacity="1">0%</text><text text-anchor="end" transform="translate(-7,273)" font-family="sans-serif" font-size="10px" fill="#000" opacity="1">5%</text><text text-anchor="end" transform="translate(-7,243)" font-family="sans-serif" font-size="10px" fill="#000" opacity="1">10%</text><text text-anchor="end" transform="translate(-7,213)" font-family="sans-serif" font-size="10px" fill="#000" opacity="1">15%</text><text text-anchor="end" transform="translate(-7,183)" font-family="sans-serif" font-size="10px" fill="#000" opacity="1">20%</text><text text-anchor="end" transform="translate(-7,153)" font-family="sans-serif" font-size="10px" fill="#000" opacity="1">25%</text><text text-anchor="end" transform="translate(-7,123)" font-family="sans-serif" font-size="10px" fill="#000" opacity="1">30%</text><text text-anchor="end" transform="translate(-7,93.00000000000001)" font-family="sans-serif" font-size="10px" fill="#000" opacity="1">35%</text><text text-anchor="end" transform="translate(-7,62.999999999999986)" font-family="sans-serif" font-size="10px" fill="#000" opacity="1">40%</text><text text-anchor="end" transform="translate(-7,32.99999999999999)" font-family="sans-serif" font-size="10px" fill="#000" opacity="1">45%</text><text text-anchor="end" transform="translate(-7,3)" font-family="sans-serif" font-size="10px" fill="#000" opacity="1">50%</text></g><g class="mark-rule role-axis-domain" pointer-events="none"><line transform="translate(0,300)" x2="0" y2="-300" stroke="#888" stroke-width="1" opacity="1"/></g><g class="mark-text role-axis-title" pointer-events="none"><text text-anchor="middle" transform="translate(-31.0146484375,150) rotate(-90) translate(0,-2)" font-family="sans-serif" font-size="11px" font-weight="bold" fill="#000" opacity="1">Alimentary poverty</text></g></g><path class="foreground" aria-hidden="true" d="" pointer-events="none" display="none"/></g></g></g><path class="foreground" aria-hidden="true" d="" display="none"/></g></g><g class="mark-group role-column-header column_header" role="graphics-object" aria-roledescription="group mark container"><g transform="translate(0,0)"><path class="background" aria-hidden="true" d="M0,0h300v0h-300Z"/><g><g class="mark-group role-title"><g transform="translate(150,-30)"><path class="background" aria-hidden="true" d="M0,0h0v0h0Z" pointer-events="none"/><g><g class="mark-text role-title-text" role="graphics-symbol" aria-roledescription="title" aria-label="Title text '2016'" pointer-events="none"><text text-anchor="middle" transform="translate(0,16)" font-family="sans-serif" font-size="20px" fill="#000" opacity="1">2016</text></g></g><path class="foreground" aria-hidden="true" d="" pointer-events="none" display="none"/></g></g></g><path class="foreground" aria-hidden="true" d="" display="none"/></g><g transform="translate(320,0)"><path class="background" aria-hidden="true" d="M0,0h300v0h-300Z"/><g><g class="mark-group role-title"><g transform="translate(150,-30)"><path class="background" aria-hidden="true" d="M0,0h0v0h0Z" pointer-events="none"/><g><g class="mark-text role-title-text" role="graphics-symbol" aria-roledescription="title" aria-label="Title text '2022'" pointer-events="none"><text text-anchor="middle" transform="translate(0,16)" font-family="sans-serif" font-size="20px" fill="#000" opacity="1">2022</text></g></g><path class="foreground" aria-hidden="true" d="" pointer-events="none" display="none"/></g></g></g><path class="foreground" aria-hidden="true" d="" display="none"/></g></g><g class="mark-group role-column-footer column_footer" role="graphics-object" aria-roledescription="group mark container"><g transform="translate(0,300)"><path class="background" aria-hidden="true" d="M0,0h300v0h-300Z"/><g><g class="mark-group role-axis" role="graphics-symbol" aria-roledescription="axis" aria-label="X-axis titled 'Extreme poverty' for a linear scale with values from 0% to 50%"><g transform="translate(0.5,0.5)"><path class="background" aria-hidden="true" d="M0,0h0v0h0Z" pointer-events="none"/><g><g class="mark-rule role-axis-tick" pointer-events="none"><line transform="translate(0,0)" x2="0" y2="5" stroke="#888" stroke-width="1" opacity="1"/><line transform="translate(30,0)" x2="0" y2="5" stroke="#888" stroke-width="1" opacity="1"/><line transform="translate(60,0)" x2="0" y2="5" stroke="#888" stroke-width="1" opacity="1"/><line transform="translate(90,0)" x2="0" y2="5" stroke="#888" stroke-width="1" opacity="1"/><line transform="translate(120,0)" x2="0" y2="5" stroke="#888" stroke-width="1" opacity="1"/><line transform="translate(150,0)" x2="0" y2="5" stroke="#888" stroke-width="1" opacity="1"/><line transform="translate(180,0)" x2="0" y2="5" stroke="#888" stroke-width="1" opacity="1"/><line transform="translate(210,0)" x2="0" y2="5" stroke="#888" stroke-width="1" opacity="1"/><line transform="translate(240,0)" x2="0" y2="5" stroke="#888" stroke-width="1" opacity="1"/><line transform="translate(270,0)" x2="0" y2="5" stroke="#888" stroke-width="1" opacity="1"/><line transform="translate(300,0)" x2="0" y2="5" stroke="#888" stroke-width="1" opacity="1"/></g><g class="mark-text role-axis-label" pointer-events="none"><text text-anchor="start" transform="translate(0,15)" font-family="sans-serif" font-size="10px" fill="#000" opacity="1">0%</text><text text-anchor="middle" transform="translate(30,15)" font-family="sans-serif" font-size="10px" fill="#000" opacity="0">5%</text><text text-anchor="middle" transform="translate(60,15)" font-family="sans-serif" font-size="10px" fill="#000" opacity="1">10%</text><text text-anchor="middle" transform="translate(90,15)" font-family="sans-serif" font-size="10px" fill="#000" opacity="0">15%</text><text text-anchor="middle" transform="translate(120,15)" font-family="sans-serif" font-size="10px" fill="#000" opacity="1">20%</text><text text-anchor="middle" transform="translate(150,15)" font-family="sans-serif" font-size="10px" fill="#000" opacity="0">25%</text><text text-anchor="middle" transform="translate(180,15)" font-family="sans-serif" font-size="10px" fill="#000" opacity="1">30%</text><text text-anchor="middle" transform="translate(210,15)" font-family="sans-serif" font-size="10px" fill="#000" opacity="0">35%</text><text text-anchor="middle" transform="translate(240,15)" font-family="sans-serif" font-size="10px" fill="#000" opacity="1">40%</text><text text-anchor="middle" transform="translate(270,15)" font-family="sans-serif" font-size="10px" fill="#000" opacity="0">45%</text><text text-anchor="end" transform="translate(300,15)" font-family="sans-serif" font-size="10px" fill="#000" opacity="1">50%</text></g><g class="mark-rule role-axis-domain" pointer-events="none"><line transform="translate(0,0)" x2="300" y2="0" stroke="#888" stroke-width="1" opacity="1"/></g><g class="mark-text role-axis-title" pointer-events="none"><text text-anchor="middle" transform="translate(150,30)" font-family="sans-serif" font-size="11px" font-weight="bold" fill="#000" opacity="1">Extreme poverty</text></g></g><path class="foreground" aria-hidden="true" d="" pointer-events="none" display="none"/></g></g></g><path class="foreground" aria-hidden="true" d="" display="none"/></g><g transform="translate(320,300)"><path class="background" aria-hidden="true" d="M0,0h300v0h-300Z"/><g><g class="mark-group role-axis" role="graphics-symbol" aria-roledescription="axis" aria-label="X-axis titled 'Extreme poverty' for a linear scale with values from 0% to 50%"><g transform="translate(0.5,0.5)"><path class="background" aria-hidden="true" d="M0,0h0v0h0Z" pointer-events="none"/><g><g class="mark-rule role-axis-tick" pointer-events="none"><line transform="translate(0,0)" x2="0" y2="5" stroke="#888" stroke-width="1" opacity="1"/><line transform="translate(30,0)" x2="0" y2="5" stroke="#888" stroke-width="1" opacity="1"/><line transform="translate(60,0)" x2="0" y2="5" stroke="#888" stroke-width="1" opacity="1"/><line transform="translate(90,0)" x2="0" y2="5" stroke="#888" stroke-width="1" opacity="1"/><line transform="translate(120,0)" x2="0" y2="5" stroke="#888" stroke-width="1" opacity="1"/><line transform="translate(150,0)" x2="0" y2="5" stroke="#888" stroke-width="1" opacity="1"/><line transform="translate(180,0)" x2="0" y2="5" stroke="#888" stroke-width="1" opacity="1"/><line transform="translate(210,0)" x2="0" y2="5" stroke="#888" stroke-width="1" opacity="1"/><line transform="translate(240,0)" x2="0" y2="5" stroke="#888" stroke-width="1" opacity="1"/><line transform="translate(270,0)" x2="0" y2="5" stroke="#888" stroke-width="1" opacity="1"/><line transform="translate(300,0)" x2="0" y2="5" stroke="#888" stroke-width="1" opacity="1"/></g><g class="mark-text role-axis-label" pointer-events="none"><text text-anchor="start" transform="translate(0,15)" font-family="sans-serif" font-size="10px" fill="#000" opacity="1">0%</text><text text-anchor="middle" transform="translate(30,15)" font-family="sans-serif" font-size="10px" fill="#000" opacity="0">5%</text><text text-anchor="middle" transform="translate(60,15)" font-family="sans-serif" font-size="10px" fill="#000" opacity="1">10%</text><text text-anchor="middle" transform="translate(90,15)" font-family="sans-serif" font-size="10px" fill="#000" opacity="0">15%</text><text text-anchor="middle" transform="translate(120,15)" font-family="sans-serif" font-size="10px" fill="#000" opacity="1">20%</text><text text-anchor="middle" transform="translate(150,15)" font-family="sans-serif" font-size="10px" fill="#000" opacity="0">25%</text><text text-anchor="middle" transform="translate(180,15)" font-family="sans-serif" font-size="10px" fill="#000" opacity="1">30%</text><text text-anchor="middle" transform="translate(210,15)" font-family="sans-serif" font-size="10px" fill="#000" opacity="0">35%</text><text text-anchor="middle" transform="translate(240,15)" font-family="sans-serif" font-size="10px" fill="#000" opacity="1">40%</text><text text-anchor="middle" transform="translate(270,15)" font-family="sans-serif" font-size="10px" fill="#000" opacity="0">45%</text><text text-anchor="end" transform="translate(300,15)" font-family="sans-serif" font-size="10px" fill="#000" opacity="1">50%</text></g><g class="mark-rule role-axis-domain" pointer-events="none"><line transform="translate(0,0)" x2="300" y2="0" stroke="#888" stroke-width="1" opacity="1"/></g><g class="mark-text role-axis-title" pointer-events="none"><text text-anchor="middle" transform="translate(150,30)" font-family="sans-serif" font-size="11px" font-weight="bold" fill="#000" opacity="1">Extreme poverty</text></g></g><path class="foreground" aria-hidden="true" d="" pointer-events="none" display="none"/></g></g></g><path class="foreground" aria-hidden="true" d="" display="none"/></g></g><g class="mark-group role-scope cell" role="graphics-object" aria-roledescription="group mark container"><g transform="translate(0,0)"><path class="background" aria-hidden="true" d="M0,0h300v300h-300Z" stroke="#ddd" stroke-width="0"/><g><g class="mark-symbol role-mark view_12_marks" clip-path="url(#clip69)" role="graphics-object" aria-roledescription="symbol mark container"><path aria-label="Extreme poverty: 8.453134%; Alimentary poverty: 17.196659%; year: 2016; state_name: AGUASCALIENTES" role="graphics-symbol" aria-roledescription="circle" transform="translate(50.71880443403778,196.82004652627825)" d="M2.739,0A2.739,2.739,0,1,1,-2.739,0A2.739,2.739,0,1,1,2.739,0" fill="#4c78a8" stroke-width="2" opacity="0.7"/><path aria-label="Extreme poverty: 4.760916%; Alimentary poverty: 14.948668%; year: 2016; state_name: BAJA CALIFORNIA" role="graphics-symbol" aria-roledescription="circle" transform="translate(28.565493933310258,210.30799353195377)" d="M2.739,0A2.739,2.739,0,1,1,-2.739,0A2.739,2.739,0,1,1,2.739,0" fill="#4c78a8" stroke-width="2" opacity="0.7"/><path aria-label="Extreme poverty: 5.291520%; Alimentary poverty: 19.184770%; year: 2016; state_name: BAJA CALIFORNIA SUR" role="graphics-symbol" aria-roledescription="circle" transform="translate(31.74911734164066,184.89138110072687)" d="M2.739,0A2.739,2.739,0,1,1,-2.739,0A2.739,2.739,0,1,1,2.739,0" fill="#4c78a8" stroke-width="2" opacity="0.7"/><path aria-label="Extreme poverty: 14.436479%; Alimentary poverty: 25.596903%; year: 2016; state_name: CAMPECHE" role="graphics-symbol" aria-roledescription="circle" transform="translate(86.61887554791437,146.4185820827628)" d="M2.739,0A2.739,2.739,0,1,1,-2.739,0A2.739,2.739,0,1,1,2.739,0" fill="#4c78a8" stroke-width="2" opacity="0.7"/><path aria-label="Extreme poverty: 9.611933%; Alimentary poverty: 16.123441%; year: 2016; state_name: COAHUILA" role="graphics-symbol" aria-roledescription="circle" transform="translate(57.67159610579496,203.25935678904676)" d="M2.739,0A2.739,2.739,0,1,1,-2.739,0A2.739,2.739,0,1,1,2.739,0" fill="#4c78a8" stroke-width="2" opacity="0.7"/><path aria-label="Extreme poverty: 6.248097%; Alimentary poverty: 21.133402%; year: 2016; state_name: COLIMA" role="graphics-symbol" aria-roledescription="circle" transform="translate(37.48857918645198,173.1995864914832)" d="M2.739,0A2.739,2.739,0,1,1,-2.739,0A2.739,2.739,0,1,1,2.739,0" fill="#4c78a8" stroke-width="2" opacity="0.7"/><path aria-label="Extreme poverty: 49.519357%; Alimentary poverty: 19.426826%; year: 2016; state_name: CHIAPAS" role="graphics-symbol" aria-roledescription="circle" transform="translate(297.11614347811064,183.43904160578018)" d="M2.739,0A2.739,2.739,0,1,1,-2.739,0A2.739,2.739,0,1,1,2.739,0" fill="#4c78a8" stroke-width="2" opacity="0.7"/><path aria-label="Extreme poverty: 10.014839%; Alimentary poverty: 18.188265%; year: 2016; state_name: CHIHUAHUA" role="graphics-symbol" aria-roledescription="circle" transform="translate(60.089036615807636,190.8704096752233)" d="M2.739,0A2.739,2.739,0,1,1,-2.739,0A2.739,2.739,0,1,1,2.739,0" fill="#4c78a8" stroke-width="2" opacity="0.7"/><path aria-label="Extreme poverty: 5.587109%; Alimentary poverty: 11.489879%; year: 2016; state_name: DISTRITO FEDERAL" role="graphics-symbol" aria-roledescription="circle" transform="translate(33.52265307713382,231.06072891006895)" d="M2.739,0A2.739,2.739,0,1,1,-2.739,0A2.739,2.739,0,1,1,2.739,0" fill="#4c78a8" stroke-width="2" opacity="0.7"/><path aria-label="Extreme poverty: 11.904729%; Alimentary poverty: 18.588673%; year: 2016; state_name: DURANGO" role="graphics-symbol" aria-roledescription="circle" transform="translate(71.4283755386361,188.46795950759147)" d="M2.739,0A2.739,2.739,0,1,1,-2.739,0A2.739,2.739,0,1,1,2.739,0" fill="#4c78a8" stroke-width="2" opacity="0.7"/><path aria-label="Extreme poverty: 10.906733%; Alimentary poverty: 19.772127%; year: 2016; state_name: GUANAJUATO" role="graphics-symbol" aria-roledescription="circle" transform="translate(65.4404003336562,181.3672368814649)" d="M2.739,0A2.739,2.739,0,1,1,-2.739,0A2.739,2.739,0,1,1,2.739,0" fill="#4c78a8" stroke-width="2" opacity="0.7"/><path aria-label="Extreme poverty: 33.788309%; Alimentary poverty: 27.836887%; year: 2016; state_name: GUERRERO" role="graphics-symbol" aria-roledescription="circle" transform="translate(202.72985656304772,132.97868047228116)" d="M2.739,0A2.739,2.739,0,1,1,-2.739,0A2.739,2.739,0,1,1,2.739,0" fill="#4c78a8" stroke-width="2" opacity="0.7"/><path aria-label="Extreme poverty: 19.316753%; Alimentary poverty: 24.510877%; year: 2016; state_name: HIDALGO" role="graphics-symbol" aria-roledescription="circle" transform="translate(115.90051706181708,152.93473852406063)" d="M2.739,0A2.739,2.739,0,1,1,-2.739,0A2.739,2.739,0,1,1,2.739,0" fill="#4c78a8" stroke-width="2" opacity="0.7"/><path aria-label="Extreme poverty: 5.452958%; Alimentary poverty: 15.405449%; year: 2016; state_name: JALISCO" role="graphics-symbol" aria-roledescription="circle" transform="translate(32.7177455556846,207.56730591141823)" d="M2.739,0A2.739,2.739,0,1,1,-2.739,0A2.739,2.739,0,1,1,2.739,0" fill="#4c78a8" stroke-width="2" opacity="0.7"/><path aria-label="Extreme poverty: 13.763578%; Alimentary poverty: 20.783817%; year: 2016; state_name: MEXICO" role="graphics-symbol" aria-roledescription="circle" transform="translate(82.58147073143928,175.29709874327142)" d="M2.739,0A2.739,2.739,0,1,1,-2.739,0A2.739,2.739,0,1,1,2.739,0" fill="#4c78a8" stroke-width="2" opacity="0.7"/><path aria-label="Extreme poverty: 16.995616%; Alimentary poverty: 25.923977%; year: 2016; state_name: MICHOACAN" role="graphics-symbol" aria-roledescription="circle" transform="translate(101.9736972659346,144.45613791777942)" d="M2.739,0A2.739,2.739,0,1,1,-2.739,0A2.739,2.739,0,1,1,2.739,0" fill="#4c78a8" stroke-width="2" opacity="0.7"/><path aria-label="Extreme poverty: 12.123528%; Alimentary poverty: 19.498543%; year: 2016; state_name: MORELOS" role="graphics-symbol" aria-roledescription="circle" transform="translate(72.74116690912675,183.00873952580127)" d="M2.739,0A2.739,2.739,0,1,1,-2.739,0A2.739,2.739,0,1,1,2.739,0" fill="#4c78a8" stroke-width="2" opacity="0.7"/><path aria-label="Extreme poverty: 14.907330%; Alimentary poverty: 19.932857%; year: 2016; state_name: NAYARIT" role="graphics-symbol" aria-roledescription="circle" transform="translate(89.44397876501814,180.4028550382281)" d="M2.739,0A2.739,2.739,0,1,1,-2.739,0A2.739,2.739,0,1,1,2.739,0" fill="#4c78a8" stroke-width="2" opacity="0.7"/><path aria-label="Extreme poverty: 4.298152%; Alimentary poverty: 14.378181%; year: 2016; state_name: NUEVO LEON" role="graphics-symbol" aria-roledescription="circle" transform="translate(25.78891435318434,213.73091491541686)" d="M2.739,0A2.739,2.739,0,1,1,-2.739,0A2.739,2.739,0,1,1,2.739,0" fill="#4c78a8" stroke-width="2" opacity="0.7"/><path aria-label="Extreme poverty: 33.095414%; Alimentary poverty: 31.372894%; year: 2016; state_name: OAXACA" role="graphics-symbol" aria-roledescription="circle" transform="translate(198.57248673220062,111.76263778492456)" d="M2.739,0A2.739,2.739,0,1,1,-2.739,0A2.739,2.739,0,1,1,2.739,0" fill="#4c78a8" stroke-width="2" opacity="0.7"/><path aria-label="Extreme poverty: 17.663613%; Alimentary poverty: 20.096630%; year: 2016; state_name: PUEBLA" role="graphics-symbol" aria-roledescription="circle" transform="translate(105.98167537403562,179.42022162860155)" d="M2.739,0A2.739,2.739,0,1,1,-2.739,0A2.739,2.739,0,1,1,2.739,0" fill="#4c78a8" stroke-width="2" opacity="0.7"/><path aria-label="Extreme poverty: 6.778483%; Alimentary poverty: 13.378149%; year: 2016; state_name: QUERETARO" role="graphics-symbol" aria-roledescription="circle" transform="translate(40.6708968710307,219.73110702713834)" d="M2.739,0A2.739,2.739,0,1,1,-2.739,0A2.739,2.739,0,1,1,2.739,0" fill="#4c78a8" stroke-width="2" opacity="0.7"/><path aria-label="Extreme poverty: 9.880269%; Alimentary poverty: 16.393596%; year: 2016; state_name: QUINTANA ROO" role="graphics-symbol" aria-roledescription="circle" transform="translate(59.28161683877508,201.63842393056973)" d="M2.739,0A2.739,2.739,0,1,1,-2.739,0A2.739,2.739,0,1,1,2.739,0" fill="#4c78a8" stroke-width="2" opacity="0.7"/><path aria-label="Extreme poverty: 14.861986%; Alimentary poverty: 20.104206%; year: 2016; state_name: SAN LUIS POTOSI" role="graphics-symbol" aria-roledescription="circle" transform="translate(89.17191543363973,179.3747646797271)" d="M2.739,0A2.739,2.739,0,1,1,-2.739,0A2.739,2.739,0,1,1,2.739,0" fill="#4c78a8" stroke-width="2" opacity="0.7"/><path aria-label="Extreme poverty: 7.334629%; Alimentary poverty: 22.743086%; year: 2016; state_name: SINALOA" role="graphics-symbol" aria-roledescription="circle" transform="translate(44.00777317032114,163.54148496115968)" d="M2.739,0A2.739,2.739,0,1,1,-2.739,0A2.739,2.739,0,1,1,2.739,0" fill="#4c78a8" stroke-width="2" opacity="0.7"/><path aria-label="Extreme poverty: 5.845177%; Alimentary poverty: 20.967142%; year: 2016; state_name: SONORA" role="graphics-symbol" aria-roledescription="circle" transform="translate(35.07105938154738,174.1971489036382)" d="M2.739,0A2.739,2.739,0,1,1,-2.739,0A2.739,2.739,0,1,1,2.739,0" fill="#4c78a8" stroke-width="2" opacity="0.7"/><path aria-label="Extreme poverty: 18.469370%; Alimentary poverty: 45.286382%; year: 2016; state_name: TABASCO" role="graphics-symbol" aria-roledescription="circle" transform="translate(110.81622285526878,28.28170716807389)" d="M2.739,0A2.739,2.739,0,1,1,-2.739,0A2.739,2.739,0,1,1,2.739,0" fill="#4c78a8" stroke-width="2" opacity="0.7"/><path aria-label="Extreme poverty: 10.029785%; Alimentary poverty: 19.243941%; year: 2016; state_name: TAMAULIPAS" role="graphics-symbol" aria-roledescription="circle" transform="translate(60.1787070022776,184.53635461075746)" d="M2.739,0A2.739,2.739,0,1,1,-2.739,0A2.739,2.739,0,1,1,2.739,0" fill="#4c78a8" stroke-width="2" opacity="0.7"/><path aria-label="Extreme poverty: 18.348185%; Alimentary poverty: 22.154525%; year: 2016; state_name: TLAXCALA" role="graphics-symbol" aria-roledescription="circle" transform="translate(110.08911130892652,167.07285234825443)" d="M2.739,0A2.739,2.739,0,1,1,-2.739,0A2.739,2.739,0,1,1,2.739,0" fill="#4c78a8" stroke-width="2" opacity="0.7"/><path aria-label="Extreme poverty: 24.839172%; Alimentary poverty: 22.212284%; year: 2016; state_name: VERACRUZ" role="graphics-symbol" aria-roledescription="circle" transform="translate(149.03503240019512,166.7262963201916)" d="M2.739,0A2.739,2.739,0,1,1,-2.739,0A2.739,2.739,0,1,1,2.739,0" fill="#4c78a8" stroke-width="2" opacity="0.7"/><path aria-label="Extreme poverty: 12.052821%; Alimentary poverty: 19.282374%; year: 2016; state_name: YUCATAN" role="graphics-symbol" aria-roledescription="circle" transform="translate(72.31692868985034,184.30575838496395)" d="M2.739,0A2.739,2.739,0,1,1,-2.739,0A2.739,2.739,0,1,1,2.739,0" fill="#4c78a8" stroke-width="2" opacity="0.7"/><path aria-label="Extreme poverty: 19.498555%; Alimentary poverty: 15.064286%; year: 2016; state_name: ZACATECAS" role="graphics-symbol" aria-roledescription="circle" transform="translate(116.99133214969079,209.614283483421)" d="M2.739,0A2.739,2.739,0,1,1,-2.739,0A2.739,2.739,0,1,1,2.739,0" fill="#4c78a8" stroke-width="2" opacity="0.7"/></g><g class="mark-line role-mark child_layer_1_marks" clip-path="url(#clip70)" role="graphics-object" aria-roledescription="line mark container"><path aria-label="Extreme poverty: 4.298152%; Alimentary poverty: 17.890534%; state_name: undefined" role="graphics-symbol" aria-roledescription="line mark" d="M25.789,192.657L297.116,119.639" stroke="lightblue" stroke-width="2" opacity="0.5"/></g></g><path class="foreground" aria-hidden="true" d="" display="none"/></g><g transform="translate(320,0)"><path class="background" aria-hidden="true" d="M0,0h300v300h-300Z" stroke="#ddd" stroke-width="0"/><g><g class="mark-symbol role-mark view_12_marks" clip-path="url(#clip71)" role="graphics-object" aria-roledescription="symbol mark container"><path aria-label="Extreme poverty: 6.072629%; Alimentary poverty: 15.166644%; year: 2022; state_name: AGUASCALIENTES" role="graphics-symbol" aria-roledescription="circle" transform="translate(36.43577194569156,209.00013613492723)" d="M2.739,0A2.739,2.739,0,1,1,-2.739,0A2.739,2.739,0,1,1,2.739,0" fill="#f58518" stroke-width="2" opacity="0.7"/><path aria-label="Extreme poverty: 2.808841%; Alimentary poverty: 8.835567%; year: 2022; state_name: BAJA CALIFORNIA" role="graphics-symbol" aria-roledescription="circle" transform="translate(16.85304448499832,246.9865975942388)" d="M2.739,0A2.739,2.739,0,1,1,-2.739,0A2.739,2.739,0,1,1,2.739,0" fill="#f58518" stroke-width="2" opacity="0.7"/><path aria-label="Extreme poverty: 2.849336%; Alimentary poverty: 13.674412%; year: 2022; state_name: BAJA CALIFORNIA SUR" role="graphics-symbol" aria-roledescription="circle" transform="translate(17.09601623030484,217.95352684667856)" d="M2.739,0A2.739,2.739,0,1,1,-2.739,0A2.739,2.739,0,1,1,2.739,0" fill="#f58518" stroke-width="2" opacity="0.7"/><path aria-label="Extreme poverty: 15.909789%; Alimentary poverty: 20.040441%; year: 2022; state_name: CAMPECHE" role="graphics-symbol" aria-roledescription="circle" transform="translate(95.45873451387017,179.75735591166173)" d="M2.739,0A2.739,2.739,0,1,1,-2.739,0A2.739,2.739,0,1,1,2.739,0" fill="#f58518" stroke-width="2" opacity="0.7"/><path aria-label="Extreme poverty: 5.901351%; Alimentary poverty: 12.580519%; year: 2022; state_name: COAHUILA" role="graphics-symbol" aria-roledescription="circle" transform="translate(35.40810453107298,224.51688474525318)" d="M2.739,0A2.739,2.739,0,1,1,-2.739,0A2.739,2.739,0,1,1,2.739,0" fill="#f58518" stroke-width="2" opacity="0.7"/><path aria-label="Extreme poverty: 4.415102%; Alimentary poverty: 13.282391%; year: 2022; state_name: COLIMA" role="graphics-symbol" aria-roledescription="circle" transform="translate(26.490610663464658,220.30565590499927)" d="M2.739,0A2.739,2.739,0,1,1,-2.739,0A2.739,2.739,0,1,1,2.739,0" fill="#f58518" stroke-width="2" opacity="0.7"/><path aria-label="Extreme poverty: 36.641772%; Alimentary poverty: 17.216878%; year: 2022; state_name: CHIAPAS" role="graphics-symbol" aria-roledescription="circle" transform="translate(219.85063200765762,196.69873359782966)" d="M2.739,0A2.739,2.739,0,1,1,-2.739,0A2.739,2.739,0,1,1,2.739,0" fill="#f58518" stroke-width="2" opacity="0.7"/><path aria-label="Extreme poverty: 5.324831%; Alimentary poverty: 9.342196%; year: 2022; state_name: CHIHUAHUA" role="graphics-symbol" aria-roledescription="circle" transform="translate(31.9489851661974,243.94682102786072)" d="M2.739,0A2.739,2.739,0,1,1,-2.739,0A2.739,2.739,0,1,1,2.739,0" fill="#f58518" stroke-width="2" opacity="0.7"/><path aria-label="Extreme poverty: 5.877441%; Alimentary poverty: 9.712603%; year: 2022; state_name: DISTRITO FEDERAL" role="graphics-symbol" aria-roledescription="circle" transform="translate(35.26464427085832,241.72438330706117)" d="M2.739,0A2.739,2.739,0,1,1,-2.739,0A2.739,2.739,0,1,1,2.739,0" fill="#f58518" stroke-width="2" opacity="0.7"/><path aria-label="Extreme poverty: 13.265514%; Alimentary poverty: 19.821082%; year: 2022; state_name: DURANGO" role="graphics-symbol" aria-roledescription="circle" transform="translate(79.59308122542072,181.07350556095224)" d="M2.739,0A2.739,2.739,0,1,1,-2.739,0A2.739,2.739,0,1,1,2.739,0" fill="#f58518" stroke-width="2" opacity="0.7"/><path aria-label="Extreme poverty: 8.380760%; Alimentary poverty: 17.233830%; year: 2022; state_name: GUANAJUATO" role="graphics-symbol" aria-roledescription="circle" transform="translate(50.28455876426016,196.59701935726008)" d="M2.739,0A2.739,2.739,0,1,1,-2.739,0A2.739,2.739,0,1,1,2.739,0" fill="#f58518" stroke-width="2" opacity="0.7"/><path aria-label="Extreme poverty: 27.222361%; Alimentary poverty: 28.448860%; year: 2022; state_name: GUERRERO" role="graphics-symbol" aria-roledescription="circle" transform="translate(163.33416645838537,129.30683995667752)" d="M2.739,0A2.739,2.739,0,1,1,-2.739,0A2.739,2.739,0,1,1,2.739,0" fill="#f58518" stroke-width="2" opacity="0.7"/><path aria-label="Extreme poverty: 12.002160%; Alimentary poverty: 15.172891%; year: 2022; state_name: HIDALGO" role="graphics-symbol" aria-roledescription="circle" transform="translate(72.01296089243915,208.96265349883922)" d="M2.739,0A2.739,2.739,0,1,1,-2.739,0A2.739,2.739,0,1,1,2.739,0" fill="#f58518" stroke-width="2" opacity="0.7"/><path aria-label="Extreme poverty: 4.731486%; Alimentary poverty: 13.222658%; year: 2022; state_name: JALISCO" role="graphics-symbol" aria-roledescription="circle" transform="translate(28.38891404207922,220.66405363640442)" d="M2.739,0A2.739,2.739,0,1,1,-2.739,0A2.739,2.739,0,1,1,2.739,0" fill="#f58518" stroke-width="2" opacity="0.7"/><path aria-label="Extreme poverty: 12.117862%; Alimentary poverty: 16.989639%; year: 2022; state_name: MEXICO" role="graphics-symbol" aria-roledescription="circle" transform="translate(72.7071699712581,198.06216852605442)" d="M2.739,0A2.739,2.739,0,1,1,-2.739,0A2.739,2.739,0,1,1,2.739,0" fill="#f58518" stroke-width="2" opacity="0.7"/><path aria-label="Extreme poverty: 12.926145%; Alimentary poverty: 20.946232%; year: 2022; state_name: MICHOACAN" role="graphics-symbol" aria-roledescription="circle" transform="translate(77.55687180635695,174.3226093083978)" d="M2.739,0A2.739,2.739,0,1,1,-2.739,0A2.739,2.739,0,1,1,2.739,0" fill="#f58518" stroke-width="2" opacity="0.7"/><path aria-label="Extreme poverty: 11.645773%; Alimentary poverty: 17.630851%; year: 2022; state_name: MORELOS" role="graphics-symbol" aria-roledescription="circle" transform="translate(69.87463954080096,194.21489412187242)" d="M2.739,0A2.739,2.739,0,1,1,-2.739,0A2.739,2.739,0,1,1,2.739,0" fill="#f58518" stroke-width="2" opacity="0.7"/><path aria-label="Extreme poverty: 10.133145%; Alimentary poverty: 16.629237%; year: 2022; state_name: NAYARIT" role="graphics-symbol" aria-roledescription="circle" transform="translate(60.79887283585116,200.22457699646893)" d="M2.739,0A2.739,2.739,0,1,1,-2.739,0A2.739,2.739,0,1,1,2.739,0" fill="#f58518" stroke-width="2" opacity="0.7"/><path aria-label="Extreme poverty: 3.811848%; Alimentary poverty: 10.952650%; year: 2022; state_name: NUEVO LEON" role="graphics-symbol" aria-roledescription="circle" transform="translate(22.87108840117998,234.28409985128388)" d="M2.739,0A2.739,2.739,0,1,1,-2.739,0A2.739,2.739,0,1,1,2.739,0" fill="#f58518" stroke-width="2" opacity="0.7"/><path aria-label="Extreme poverty: 24.860943%; Alimentary poverty: 23.103975%; year: 2022; state_name: OAXACA" role="graphics-symbol" aria-roledescription="circle" transform="translate(149.16565859875067,161.37614741502054)" d="M2.739,0A2.739,2.739,0,1,1,-2.739,0A2.739,2.739,0,1,1,2.739,0" fill="#f58518" stroke-width="2" opacity="0.7"/><path aria-label="Extreme poverty: 19.126842%; Alimentary poverty: 19.126723%; year: 2022; state_name: PUEBLA" role="graphics-symbol" aria-roledescription="circle" transform="translate(114.76105484020476,185.2396600472064)" d="M2.739,0A2.739,2.739,0,1,1,-2.739,0A2.739,2.739,0,1,1,2.739,0" fill="#f58518" stroke-width="2" opacity="0.7"/><path aria-label="Extreme poverty: 4.604981%; Alimentary poverty: 11.366196%; year: 2022; state_name: QUERETARO" role="graphics-symbol" aria-roledescription="circle" transform="translate(27.629883419799,231.80282506262182)" d="M2.739,0A2.739,2.739,0,1,1,-2.739,0A2.739,2.739,0,1,1,2.739,0" fill="#f58518" stroke-width="2" opacity="0.7"/><path aria-label="Extreme poverty: 7.065452%; Alimentary poverty: 12.708258%; year: 2022; state_name: QUINTANA ROO" role="graphics-symbol" aria-roledescription="circle" transform="translate(42.39271089719616,223.75045181359155)" d="M2.739,0A2.739,2.739,0,1,1,-2.739,0A2.739,2.739,0,1,1,2.739,0" fill="#f58518" stroke-width="2" opacity="0.7"/><path aria-label="Extreme poverty: 13.411551%; Alimentary poverty: 13.189751%; year: 2022; state_name: SAN LUIS POTOSI" role="graphics-symbol" aria-roledescription="circle" transform="translate(80.469305935221,220.8614920143768)" d="M2.739,0A2.739,2.739,0,1,1,-2.739,0A2.739,2.739,0,1,1,2.739,0" fill="#f58518" stroke-width="2" opacity="0.7"/><path aria-label="Extreme poverty: 4.476619%; Alimentary poverty: 17.112483%; year: 2022; state_name: SINALOA" role="graphics-symbol" aria-roledescription="circle" transform="translate(26.859714896663878,197.32510388016843)" d="M2.739,0A2.739,2.739,0,1,1,-2.739,0A2.739,2.739,0,1,1,2.739,0" fill="#f58518" stroke-width="2" opacity="0.7"/><path aria-label="Extreme poverty: 5.587431%; Alimentary poverty: 19.226718%; year: 2022; state_name: SONORA" role="graphics-symbol" aria-roledescription="circle" transform="translate(33.52458753932484,184.6396922855245)" d="M2.739,0A2.739,2.739,0,1,1,-2.739,0A2.739,2.739,0,1,1,2.739,0" fill="#f58518" stroke-width="2" opacity="0.7"/><path aria-label="Extreme poverty: 15.880907%; Alimentary poverty: 34.375125%; year: 2022; state_name: TABASCO" role="graphics-symbol" aria-roledescription="circle" transform="translate(95.28544392789317,93.74924762495161)" d="M2.739,0A2.739,2.739,0,1,1,-2.739,0A2.739,2.739,0,1,1,2.739,0" fill="#f58518" stroke-width="2" opacity="0.7"/><path aria-label="Extreme poverty: 8.034313%; Alimentary poverty: 12.155297%; year: 2022; state_name: TAMAULIPAS" role="graphics-symbol" aria-roledescription="circle" transform="translate(48.205876722417656,227.06821789801302)" d="M2.739,0A2.739,2.739,0,1,1,-2.739,0A2.739,2.739,0,1,1,2.739,0" fill="#f58518" stroke-width="2" opacity="0.7"/><path aria-label="Extreme poverty: 16.931545%; Alimentary poverty: 18.736785%; year: 2022; state_name: TLAXCALA" role="graphics-symbol" aria-roledescription="circle" transform="translate(101.58927041820677,187.57929205890125)" d="M2.739,0A2.739,2.739,0,1,1,-2.739,0A2.739,2.739,0,1,1,2.739,0" fill="#f58518" stroke-width="2" opacity="0.7"/><path aria-label="Extreme poverty: 18.759778%; Alimentary poverty: 19.849951%; year: 2022; state_name: VERACRUZ" role="graphics-symbol" aria-roledescription="circle" transform="translate(112.55866524769932,180.900296744874)" d="M2.739,0A2.739,2.739,0,1,1,-2.739,0A2.739,2.739,0,1,1,2.739,0" fill="#f58518" stroke-width="2" opacity="0.7"/><path aria-label="Extreme poverty: 10.191831%; Alimentary poverty: 13.569964%; year: 2022; state_name: YUCATAN" role="graphics-symbol" aria-roledescription="circle" transform="translate(61.150983043391584,218.5802174447066)" d="M2.739,0A2.739,2.739,0,1,1,-2.739,0A2.739,2.739,0,1,1,2.739,0" fill="#f58518" stroke-width="2" opacity="0.7"/><path aria-label="Extreme poverty: 16.334617%; Alimentary poverty: 15.724217%; year: 2022; state_name: ZACATECAS" role="graphics-symbol" aria-roledescription="circle" transform="translate(98.00770158784313,205.65469589695468)" d="M2.739,0A2.739,2.739,0,1,1,-2.739,0A2.739,2.739,0,1,1,2.739,0" fill="#f58518" stroke-width="2" opacity="0.7"/></g><g class="mark-line role-mark child_layer_1_marks" clip-path="url(#clip72)" role="graphics-object" aria-roledescription="line mark container"><path aria-label="Extreme poverty: 2.808841%; Alimentary poverty: 12.858600%; state_name: undefined" role="graphics-symbol" aria-roledescription="line mark" d="M16.853,222.848L219.851,138.21" stroke="lightblue" stroke-width="2" opacity="0.5"/></g></g><path class="foreground" aria-hidden="true" d="" display="none"/></g></g><g class="mark-group role-legend" role="graphics-symbol" aria-roledescription="legend" aria-label="Symbol legend titled 'Year' for fill color with 2 values: 2016, 2022"><g transform="translate(639,0)"><path class="background" aria-hidden="true" d="M0,0h39v40h-39Z" pointer-events="none"/><g><g class="mark-group role-legend-entry"><g transform="translate(0,16)"><path class="background" aria-hidden="true" d="M0,0h0v0h0Z" pointer-events="none"/><g><g class="mark-group role-scope" role="graphics-object" aria-roledescription="group mark container"><g transform="translate(0,0)"><path class="background" aria-hidden="true" d="M0,0h38.24609375v11h-38.24609375Z" pointer-events="none" opacity="1"/><g><g class="mark-symbol role-legend-symbol" pointer-events="none"><path transform="translate(6,6)" d="M5,0A5,5,0,1,1,-5,0A5,5,0,1,1,5,0" fill="#4c78a8" stroke-width="1.5" opacity="0.7"/></g><g class="mark-text role-legend-label" pointer-events="none"><text text-anchor="start" transform="translate(16,9)" font-family="sans-serif" font-size="10px" fill="#000" opacity="1">2016</text></g></g><path class="foreground" aria-hidden="true" d="" pointer-events="none" display="none"/></g><g transform="translate(0,13)"><path class="background" aria-hidden="true" d="M0,0h38.24609375v11h-38.24609375Z" pointer-events="none" opacity="1"/><g><g class="mark-symbol role-legend-symbol" pointer-events="none"><path transform="translate(6,6)" d="M5,0A5,5,0,1,1,-5,0A5,5,0,1,1,5,0" fill="#f58518" stroke-width="1.5" opacity="0.7"/></g><g class="mark-text role-legend-label" pointer-events="none"><text text-anchor="start" transform="translate(16,9)" font-family="sans-serif" font-size="10px" fill="#000" opacity="1">2022</text></g></g><path class="foreground" aria-hidden="true" d="" pointer-events="none" display="none"/></g></g></g><path class="foreground" aria-hidden="true" d="" pointer-events="none" display="none"/></g></g><g class="mark-text role-legend-title" pointer-events="none"><text text-anchor="start" transform="translate(0,9)" font-family="sans-serif" font-size="11px" font-weight="bold" fill="#000" opacity="1">Year</text></g></g><path class="foreground" aria-hidden="true" d="" pointer-events="none" display="none"/></g></g><g class="mark-group role-title"><g transform="translate(-42.0146484375,-96)"><path class="background" aria-hidden="true" d="M0,0h0v0h0Z" pointer-events="none"/><g><g class="mark-text role-title-text" role="graphics-symbol" aria-roledescription="title" aria-label="Title text 'Extreme poverty vs Alimentary poverty'" pointer-events="none"><text text-anchor="start" transform="translate(0,10)" font-family="sans-serif" font-size="13px" font-weight="bold" fill="#000" opacity="1">Extreme poverty vs Alimentary poverty</text></g><g class="mark-text role-title-subtitle" role="graphics-symbol" aria-roledescription="subtitle" aria-label="Subtitle text 'Percentage of Population in poverty'" pointer-events="none"><text text-anchor="start" transform="translate(0,25)" font-family="sans-serif" font-size="12px" fill="#000" opacity="1">Percentage of Population in poverty</text></g></g><path class="foreground" aria-hidden="true" d="" pointer-events="none" display="none"/></g></g></g><path class="foreground" aria-hidden="true" d="" display="none"/></g></g></g><defs><clipPath id="clip69"><rect x="0" y="0" width="300" height="300"/></clipPath><clipPath id="clip70"><rect x="0" y="0" width="300" height="300"/></clipPath><clipPath id="clip71"><rect x="0" y="0" width="300" height="300"/></clipPath><clipPath id="clip72"><rect x="0" y="0" width="300" height="300"/></clipPath></defs></svg>